<?xml version="1.0" encoding="UTF-8" standalone="no"?>
<!-- Creator: CorelDRAW -->

<svg
   xml:space="preserve"
   width="1000px"
   height="1000px"
   version="1.1"
   style="shape-rendering:geometricPrecision; text-rendering:geometricPrecision; image-rendering:optimizeQuality; fill-rule:evenodd; clip-rule:evenodd"
   viewBox="0 0 1000 1000"
   sodipodi:docname="pettingzoo-white.svg"
   inkscape:version="1.2.1 (9c6d41e410, 2022-07-14)"
   id="svg2242"
   inkscape:export-filename="..\white100\pettingzoo-white100.png"
   inkscape:export-xdpi="9.6000004"
   inkscape:export-ydpi="9.6000004"
   xmlns:inkscape="http://www.inkscape.org/namespaces/inkscape"
   xmlns:sodipodi="http://sodipodi.sourceforge.net/DTD/sodipodi-0.dtd"
   xmlns="http://www.w3.org/2000/svg"
   xmlns:svg="http://www.w3.org/2000/svg">
 <defs
   id="defs2218">
  <style
   type="text/css"
   id="style2216">
   <![CDATA[
    .str0 {stroke:black;stroke-width:20;stroke-linecap:round;stroke-linejoin:round;stroke-miterlimit:22.9256}
    .fil0 {fill:none}
   ]]>
  </style>
 </defs>
 <g
   id="Layer_x0020_1"
   inkscape:label="Layer 1">
  <metadata
   id="CorelCorpID_0Corel-Layer" />
  <sodipodi:namedview
   id="namedview1019"
   pagecolor="#ffffff"
   bordercolor="#666666"
   borderopacity="1.0"
   inkscape:showpageshadow="2"
   inkscape:pageopacity="0.0"
   inkscape:pagecheckerboard="0"
   inkscape:deskcolor="#d1d1d1"
   showgrid="false"
   inkscape:zoom="0.36388287"
   inkscape:cx="322.90611"
   inkscape:cy="612.83457"
   inkscape:window-width="1538"
   inkscape:window-height="877"
   inkscape:window-x="1974"
   inkscape:window-y="-8"
   inkscape:window-maximized="1"
   inkscape:current-layer="layer3"
   showguides="true"
   shape-rendering="crispEdges">
   <sodipodi:guide
   position="918.5932,42.16018"
   orientation="0,-1"
   id="guide3014"
   inkscape:locked="false" />
   <sodipodi:guide
   position="100.41965,50.36218"
   orientation="0,-1"
   id="guide3022"
   inkscape:locked="false" />
  </sodipodi:namedview>
  <g
   id="layer3"
   inkscape:groupmode="layer"
   inkscape:label="Image 1">
   <g
   id="g3095"
   style="stroke:#ffffff">
    <path
   id="path1508"
   class="fil0 str0"
   d="M87 267.91l-8.31 19.59c-23.01,44.1 -64.94,98.32 -35.14,116.02 7.19,11.64 8.55,23.46 28.45,26.07l37.85 -4.85m-28.46 22.5c17.1,4.79 30.32,1.78 41.06,-4.61"
   sodipodi:nodetypes="ccccccc"
   style="stroke:#ffffff" />
    <path
   id="path1512"
   class="fil0 str0"
   d="M102.82 470.36c-13.26,7.85 -20.06,14.73 -27.48,29.8"
   sodipodi:nodetypes="cc"
   style="stroke:#ffffff" />
    <path
   id="path1514"
   class="fil0 str0"
   d="M82.67 518.88c-19.19,19.36 -20.15,53.57 2.49,27.36 -0.45,9.44 1.89,24.94 19.66,31.71"
   sodipodi:nodetypes="ccc"
   style="stroke:#ffffff" />
    <path
   id="path1516"
   class="fil0 str0"
   d="M114.49 547.39c-37.61,130.38 42.46,118.1 107.41,198.24 7.11,-9.18 7.31,-20.09 2.23,-32.31 59.13,21.58 66.33,60.27 40.86,105.9 13.08,-5.49 30.85,-8.83 43.88,-49.97"
   sodipodi:nodetypes="ccccc"
   style="stroke:#ffffff" />
    <path
   id="path1518"
   class="fil0 str0"
   d="M95.27 247.72c-7.3,-8.62 -8.85,-7.57 -9.92,-17.93"
   sodipodi:nodetypes="cc"
   style="stroke:#ffffff" />
    <path
   id="path1520"
   class="fil0 str0"
   d="M101.23 217.89c-9.02,-20.21 2.73,-37.98 5.31,-44.42"
   sodipodi:nodetypes="cc"
   style="stroke:#ffffff" />
    <path
   id="path1522"
   class="fil0 str0"
   d="M126.94 192.91c1.4,-27.29 32.23,-45.62 52.12,-61.77m5.24 24.42c10.46,-3.24 19.06,-0.81 25.85,1.59m18.31 1.53c17.86,-26.75 42.3,-10.66 47.75,24.46 2.9,18.69 5.09,39.61 5.35,51.32"
   sodipodi:nodetypes="cccccsc"
   style="stroke:#ffffff" />
    <path
   id="path1524"
   class="fil0 str0"
   d="M275.59 172.14c79.73,25.74 114.18,94.98 181.67,96.32 -8.24,9.47 -17.15,27.3 -54.34,26.33 21.17,7.39 36.29,13.55 52.35,31.16"
   sodipodi:nodetypes="cccc"
   style="stroke:#ffffff" />
    <path
   id="path2993"
   class="fil0 str0"
   d="M431.09 334.41c16.12,31.77 40.21,34.21 61.91,32.15 -13.48,11.18 -32.99,25.27 -67.25,4.91 19.48,20.32 33.55,29.96 35.97,69.09"
   sodipodi:nodetypes="cccc"
   style="stroke:#ffffff" />
    <path
   id="path3016"
   class="fil0 str0"
   d="M438.95 604.24c-3.37,42.16 -8.2,78.92 0.55,129.86 11.15,40.08 5.79,49.04 -0.93,69.3 -21.02,63.09 -61.7,136.7 -67.19,148.25 -5.12,10.77 -15,21.25 -30.19,21.09l-61.43 0c-14.88,0 -15.97,-6.88 -15.97,-6.88 -2.15,-44.2 80.62,-55.8 79.2,-176.59 1.16,-19.75 -3.52,-23.07 -13.74,-37.15 -10.76,-14.85 -21.06,-31.05 -31.54,-48.16 -49.2,-80.27 7.36,-167.14 9.27,-172.28m65.22 -100.95c135.72,5.4 109.06,55.47 387.84,51.04 27.19,-1.79 62.39,-9.2 78.28,-15.95 220.44,-93.69 60.52,-246.87 35.41,-273.22 -52.21,3.98 -67.29,-8.91 -75,-26.04 6.23,-3.24 16.32,-3.91 16.25,-11.35 -16.94,-10.42 -21.52,-32.42 -18.98,-38.27 5.08,3.43 15.42,9.05 20.5,1.2 -6.45,-39.59 8.48,-54.82 19.29,-63.1 4,11.72 8,12.94 12,13.2 13.92,-28.42 32.49,-41.59 45.77,-41.2 -15.73,37.34 -12.9,56.14 -2.29,67.13 5.35,-3.24 10.69,-14.8 16.03,-20.07 15.51,18.92 11.61,37.3 6.42,54.96 6.15,3.8 12.29,-1.06 18.44,-1.42 1.36,25.03 -16.44,44.54 -37.39,55.38 73.37,57.27 191.86,231.32 -59.19,340.71 -20.01,10.47 -14.58,38.1 -8.39,57.22 24.18,82.2 57.71,148.37 103.3,193.87 16.37,14 19.92,17.21 25.64,36.06 12.39,40.88 28.09,91.59 27.67,127.88 -2.12,17.36 -0.38,33.98 -19.28,33.98l-48.07 0c-25.04,3.62 -11.5,-34.46 -6.96,-46.15 7.29,-14.78 -3.04,-25.2 -9.87,-37.79 -102.21,-187.99 -208.69,-226.05 -315.99,-172.7 -62.7,31.17 -80.46,34.34 -134.11,47.2"
   sodipodi:nodetypes="cccscccccscccsccccccccccccccccccccccsc"
   style="stroke:#ffffff" />
    <path
   id="path3018"
   class="fil0 str0"
   d="M297.2 801.35c23.34,-7.37 41.79,-29.41 39.91,-37.48"
   sodipodi:nodetypes="cc"
   style="stroke:#ffffff" />
    <path
   id="path3020"
   class="fil0 str0"
   d="M170.11 734.26c-13.44,58.13 -49.42,120.46 -101.81,168.19 -8.06,9.55 -19.55,13.46 -28.56,19.93 -22.58,16.31 -41.25,42.56 -14.05,41.9l52.26 0c29.81,2.34 42.05,-13.63 57.12,-27.7 74.13,-73.08 99.35,-126.25 140.13,-181.67"
   sodipodi:nodetypes="ccccccc"
   style="stroke:#ffffff" />
    <path
   id="path3024"
   class="fil0 str0"
   d="M622.25 701.95c34.9,43.12 43.79,68.03 46.69,88.75 3.15,15.41 -1.11,21.02 -8.47,33.25 -34.88,57.71 -53.41,72.6 -79.82,104.05 -22.41,28.3 -18.55,35.5 8.25,36.29l40.69 0c11.95,0.09 23.9,0.54 35.85,-16.3 0,0 47.56,-71.31 78.67,-109.11 7.81,-9.49 13.75,-23.23 1.61,-55.57 -4.75,-12.65 -15.19,-71.43 -11.64,-70.92"
   sodipodi:nodetypes="cccccccssc"
   style="stroke:#ffffff" />
    <path
   id="path3049"
   class="fil0 str0"
   d="M139.55 246.36c21.55,-10.06 28.51,-18.58 46.22,-42.19 2.27,17 -1.78,39.07 -10.13,51.58 22.55,-6.74 26.85,-9.65 44.68,-24.51"
   sodipodi:nodetypes="cccc"
   style="stroke:#ffffff" />
    <path
   id="path3051"
   class="fil0 str0"
   d="M227.47 284.52c-22.56,15.05 -36.21,13.19 -55.65,11.29 1.31,21.44 21.57,28.63 46.42,31.84 -21.39,11.85 -38.39,28.06 -54.13,45.57 12.61,-3.06 22.15,-9.19 39.88,-7.12 -14.24,13.24 -28.48,27.94 -42.72,50.56"
   sodipodi:nodetypes="cccccc"
   style="stroke:#ffffff" />
   </g>
  </g>
 </g>
</svg>
