<?xml version="1.0" encoding="UTF-8" standalone="no"?>
<!-- Creator: CorelDRAW -->

<svg
   xml:space="preserve"
   width="1000px"
   height="1000px"
   version="1.1"
   style="shape-rendering:geometricPrecision; text-rendering:geometricPrecision; image-rendering:optimizeQuality; fill-rule:evenodd; clip-rule:evenodd"
   viewBox="0 0 1000 1000"
   id="svg245"
   sodipodi:docname="supersuit-white.svg"
   inkscape:version="1.2.1 (9c6d41e410, 2022-07-14)"
   inkscape:export-filename="..\white100\supersuit-white100.png"
   inkscape:export-xdpi="9.6000004"
   inkscape:export-ydpi="9.6000004"
   xmlns:inkscape="http://www.inkscape.org/namespaces/inkscape"
   xmlns:sodipodi="http://sodipodi.sourceforge.net/DTD/sodipodi-0.dtd"
   xmlns="http://www.w3.org/2000/svg"
   xmlns:svg="http://www.w3.org/2000/svg"><sodipodi:namedview
   id="namedview247"
   pagecolor="#ffffff"
   bordercolor="#666666"
   borderopacity="1.0"
   inkscape:showpageshadow="2"
   inkscape:pageopacity="0.0"
   inkscape:pagecheckerboard="0"
   inkscape:deskcolor="#d1d1d1"
   showgrid="false"
   inkscape:zoom="0.31723122"
   inkscape:cx="427.13325"
   inkscape:cy="463.38441"
   inkscape:window-width="1538"
   inkscape:window-height="877"
   inkscape:window-x="1974"
   inkscape:window-y="-8"
   inkscape:window-maximized="1"
   inkscape:current-layer="Layer_x0020_1" />
 <defs
   id="defs239">
  <style
   type="text/css"
   id="style237">
   <![CDATA[
    .str0 {stroke:#373435;stroke-width:2.36;stroke-miterlimit:22.9256}
    .fil0 {fill:none}
   ]]>
  </style>
 </defs>
 <g
   id="Layer_x0020_1"
   inkscape:label="Layer 1">
  <metadata
   id="CorelCorpID_0Corel-Layer" />
  
 <g
   id="g7982"
   style="clip-rule:evenodd;opacity:1;fill:none;fill-opacity:1;fill-rule:evenodd;stroke:#ffffff;stroke-opacity:1;image-rendering:optimizeQuality;shape-rendering:geometricPrecision;text-rendering:geometricPrecision"
   transform="translate(0.309,0.308998)"><path
     style="fill:none;fill-opacity:1;stroke:#ffffff;stroke-width:20;stroke-linecap:round;stroke-linejoin:round;stroke-dasharray:none;stroke-opacity:1"
     d="m 358.60858,423.31051 c -97.59058,16.80412 -115.45061,88.18993 -126.36808,77.38893 -45.50128,-45.01587 -38.47799,-65.13656 -17.02959,-102.492 35.35345,-61.57307 2.49512,-74.40569 -18.94919,-114.60116 -17.98993,-34.67338 -26.94407,-89.96607 26.92305,-144.10743 11.2392,-11.29642 77.70277,41.45233 134.98062,60.83422 83.20588,28.1555 161.58324,14.0976 219.60965,26.11291 27.85975,5.76882 75.63633,22.94717 85.45423,69.5869 6.04202,28.70253 1.3449,61.69778 -44.34645,97.80453 -47.87609,37.8332 -129.31818,53.41603 -182.05743,89.31265 -47.77937,32.52071 -53.33339,78.71323 -13.69709,132.33324 27.9314,37.78561 64.94142,65.96065 182.77285,86.49403 -81.09483,52.67065 -182.33597,100.70248 -321.02668,151.001"
     id="path2517"
     sodipodi:nodetypes="csscssssssscc" /><path
     style="fill:none;fill-opacity:1;stroke:#ffffff;stroke-width:20;stroke-linecap:round;stroke-linejoin:round;stroke-dasharray:none;stroke-opacity:1"
     d="M 669.71034,296.49715 C 793.96836,198.02863 868.84316,89.40494 930.95958,10.367034"
     id="path6245"
     sodipodi:nodetypes="cc" /><path
     style="opacity:1;fill:none;fill-opacity:1;stroke:#ffffff;stroke-width:20;stroke-linecap:round;stroke-linejoin:round;stroke-dasharray:none;stroke-opacity:1"
     d="M 675.93057,209.41407 C 623.3473,215.0729 587.4168,88.950128 659.34332,76.716046 c 68.32917,-11.622204 69.67806,83.060894 47.35826,114.179814 -9.49617,13.23983 -20.1567,17.37593 -30.77101,18.51821 z"
     id="path6247"
     sodipodi:nodetypes="ssss" /><path
     style="fill:none;fill-opacity:1;stroke:#ffffff;stroke-width:20;stroke-linecap:round;stroke-linejoin:round;stroke-dasharray:none;stroke-opacity:1"
     d="M 416.75474,619.94859 C 302.85949,742.60146 211.74191,861.45806 68.42242,989.01497"
     id="path6249"
     sodipodi:nodetypes="cc" /><path
     style="fill:none;fill-opacity:1;stroke:#ffffff;stroke-width:20;stroke-linecap:round;stroke-linejoin:round;stroke-dasharray:none;stroke-opacity:1"
     d="m 583.33012,228.56673 c -57.76292,16.0554 -115.56638,76.85316 -142.58498,107.55492 -18.63453,21.17478 -28.04853,37.73628 -5.26508,78.53928 7.05971,12.64327 45.55497,89.31907 132.82664,151.76565"
     id="path6251"
     sodipodi:nodetypes="cssc" /></g></g>
</svg>
