<?xml version="1.0" encoding="UTF-8" standalone="no"?>
<!-- Creator: CorelDRAW -->

<svg
   xml:space="preserve"
   width="1000px"
   height="1000px"
   version="1.1"
   style="shape-rendering:geometricPrecision; text-rendering:geometricPrecision; image-rendering:optimizeQuality; fill-rule:evenodd; clip-rule:evenodd"
   viewBox="0 0 1000 1000"
   sodipodi:docname="tinyscaler-white.svg"
   inkscape:version="1.2.1 (9c6d41e410, 2022-07-14)"
   inkscape:export-filename="..\white48\tinyscaler-white48.png"
   inkscape:export-xdpi="4.6079998"
   inkscape:export-ydpi="4.6079998"
   id="svg37"
   xmlns:inkscape="http://www.inkscape.org/namespaces/inkscape"
   xmlns:sodipodi="http://sodipodi.sourceforge.net/DTD/sodipodi-0.dtd"
   xmlns="http://www.w3.org/2000/svg"
   xmlns:svg="http://www.w3.org/2000/svg">
 <defs
   id="defs4">
  <style
   type="text/css"
   id="style2">
   <![CDATA[
    .str1 {stroke:black;stroke-width:20;stroke-miterlimit:22.9256}
    .str0 {stroke:black;stroke-width:20;stroke-linecap:round;stroke-miterlimit:22.9256}
    .str2 {stroke:black;stroke-width:20;stroke-linecap:square;stroke-miterlimit:22.9256}
    .fil0 {fill:none}
    .fil2 {fill:none;fill-rule:nonzero}
    .fil1 {fill:black;fill-rule:nonzero;fill-opacity:0.000000}
   ]]>
  </style>
 </defs>
 <g
   id="Layer_x0020_1"
   inkscape:label="Layer 1">
  <metadata
   id="CorelCorpID_0Corel-Layer" />
  <sodipodi:namedview
   id="namedview7"
   pagecolor="#ffffff"
   bordercolor="#666666"
   borderopacity="1.0"
   inkscape:pageshadow="2"
   inkscape:pageopacity="0.0"
   inkscape:pagecheckerboard="0"
   inkscape:document-units="mm"
   showgrid="false"
   units="px"
   inkscape:snap-global="false"
   inkscape:zoom="0.36388287"
   inkscape:cx="137.40685"
   inkscape:cy="544.13114"
   inkscape:window-width="1538"
   inkscape:window-height="877"
   inkscape:window-x="1974"
   inkscape:window-y="-8"
   inkscape:window-maximized="1"
   inkscape:current-layer="layer1"
   inkscape:showpageshadow="2"
   inkscape:deskcolor="#d1d1d1" />
  <g
   id="layer1"
   inkscape:label="Capa 1"
   inkscape:groupmode="layer">
   
   
   <g
   id="g311"
   transform="translate(-0.02703551)"
   style="stroke:#ffffff"><g
     id="g26487"
     style="stroke:#ffffff">
    <path
   id="path859"
   class="fil0 str0"
   d="m 348.79,150.86 c 50.61,65.83 65.53,88.92 65.21,133.11 -0.4,54.36 -28.66,105.26 -78.85,198.98 -86.36,149.18 -110,325.18 -77.84,443.08 11.7,42.92 19.92,58.34 19.92,58.34"
   sodipodi:nodetypes="cscsc"
   style="stroke:#ffffff" />
    <path
   id="path863"
   class="fil0 str0"
   d="m 569.68,15.63 c 116.27,110.62 93.53,204.83 77.93,305.68 -33.76,172.35 -105.22,322.09 -3.93,441.88"
   sodipodi:nodetypes="ccc"
   style="stroke:#ffffff" />
    <g
   id="path867"
   sodipodi:nodetypes="cscssc"
   style="stroke:#ffffff">
     
     <path
   class="fil2 str2"
   d="m 627.03,445.83 c 10.74,1.11 20.61,2.44 29.66,3.95 158.29,26.5 62.27,111.62 -60.59,146.77 -131.04,37.39 -335.32,55 -421.44,99.27 -71.41,36.7 -94.32,94.25 -3.21,160.42 17.77,12.9 48.42,30.35 72.81,37.41 M 627.03,445.83 v 0 z"
   id="path18"
   style="stroke:#ffffff" />
    </g>
    <g
   id="path871-5"
   sodipodi:nodetypes="csccc"
   style="stroke:#ffffff">
     
     <path
   class="fil2 str2"
   d="m 364.5,411.27 c -18.09,-2.4 -34.56,-8.9 -46.72,-13.05 -116.01,-39.69 19.79,-150.7 57.98,-169.57 126.23,-77.13 287.4,-94.32 328.98,-76.15 35.47,19.6 -12.18,39.23 -35.59,57.14 M 364.5,411.27 v 0 z"
   id="path29"
   style="stroke:#ffffff" />
    </g>
   </g><path
     id="path26522-8"
     class="fil2 str0"
     d="m 823.74,496.76 c 6.02,26.13 44.24,41.08 84.62,30.33 59.38,-15.8 81.36,-69.35 75.38,-76.61 -5.25,-6.37 -56.46,-27.4 -97.17,-18.03 -40.72,9.38 -68.85,38.17 -62.83,64.31 z"
     sodipodi:nodetypes="sssss"
     style="stroke:#ffffff" /><path
     id="path26522-8-5"
     class="fil2 str0"
     d="m 171.52,313.17 c -8.49,25.44 -47.97,36.66 -87.12,22.1 -57.59,-21.4 -74.36,-76.81 -67.72,-83.45 5.83,-5.86 58.82,-21.9 98.46,-8.67 39.63,13.23 64.88,44.57 56.38,70.02 z"
     sodipodi:nodetypes="sssss"
     style="stroke:#ffffff" /></g>
  </g>
 </g>
</svg>
