<?xml version="1.0" encoding="UTF-8" standalone="no"?>
<!-- Creator: CorelDRAW -->

<svg
   xml:space="preserve"
   width="1000px"
   height="1000px"
   version="1.1"
   style="shape-rendering:geometricPrecision; text-rendering:geometricPrecision; image-rendering:optimizeQuality; fill-rule:evenodd; clip-rule:evenodd"
   viewBox="0 0 1000 1000"
   inkscape:version="1.2.1 (9c6d41e410, 2022-07-14)"
   sodipodi:docname="jumpy-white.svg"
   id="svg53"
   inkscape:export-filename="..\white100\jumpy-white100.png"
   inkscape:export-xdpi="9.6000004"
   inkscape:export-ydpi="9.6000004"
   xmlns:inkscape="http://www.inkscape.org/namespaces/inkscape"
   xmlns:sodipodi="http://sodipodi.sourceforge.net/DTD/sodipodi-0.dtd"
   xmlns="http://www.w3.org/2000/svg"
   xmlns:svg="http://www.w3.org/2000/svg">
 <defs
   id="defs4">
  <style
   type="text/css"
   id="style2">
   <![CDATA[
    .str0 {stroke:black;stroke-width:20;stroke-linecap:round;stroke-linejoin:round;stroke-miterlimit:22.9256}
    .fil0 {fill:none}
   ]]>
  </style>
 </defs>
 <g
   id="Layer_x0020_1"
   inkscape:label="Layer 1">
  <metadata
   id="CorelCorpID_0Corel-Layer" />
  <sodipodi:namedview
   id="namedview7"
   pagecolor="#ffffff"
   bordercolor="#666666"
   borderopacity="1.0"
   inkscape:showpageshadow="2"
   inkscape:pageopacity="0.0"
   inkscape:pagecheckerboard="0"
   inkscape:deskcolor="#d1d1d1"
   inkscape:document-units="px"
   showgrid="false"
   showguides="true"
   inkscape:zoom="0.39"
   inkscape:cx="567.94872"
   inkscape:cy="653.84615"
   inkscape:window-width="1538"
   inkscape:window-height="877"
   inkscape:window-x="1974"
   inkscape:window-y="-8"
   inkscape:window-maximized="1"
   inkscape:current-layer="layer2">
   
   
   
   
   <inkscape:grid
   type="xygrid"
   id="grid914"
   dotted="true" />
   
   
   
   
   
   
   
   
   
   
   
   
   
   
   
   
   
   
   
   
   
   
   
   
   
   
   
   
   
   
   
   
  </sodipodi:namedview>
  <g
   id="layer2"
   inkscape:groupmode="layer"
   inkscape:label="Layer 2">
   
   
   
   
   
   <g
   id="g342"
   transform="translate(0,0.0028324)"
   style="stroke:#ffffff"><line
     id="path4288"
     class="fil0 str0"
     x1="338.07001"
     y1="167.42999"
     x2="338.07001"
     y2="837.63"
     sodipodi:nodetypes="cc"
     style="stroke:#ffffff" /><line
     id="path4288-0"
     class="fil0 str0"
     x1="661.92999"
     y1="166.59"
     x2="661.92999"
     y2="836.47998"
     sodipodi:nodetypes="cc"
     style="stroke:#ffffff" /><line
     id="path4366"
     class="fil0 str0"
     x1="230.11"
     y1="132.95"
     x2="230.11"
     y2="859.78998"
     sodipodi:nodetypes="cc"
     style="stroke:#ffffff" /><line
     id="path4366-2"
     class="fil0 str0"
     x1="771.03003"
     y1="136.34"
     x2="771.03003"
     y2="867.03003"
     sodipodi:nodetypes="cc"
     style="stroke:#ffffff" /><path
     id="frame"
     class="fil0 str0"
     d="m 14.21,376.93566 h 214.91 c 0,0 70.6,0 108.95,10.46 57.02,19.27 67.06,46.38 161.93,235.67 88.92,177.43 161.93,242.03 271.03,243.97 h 128.4 c 47.84,0.68 86.36,-38.51 86.36,-86.36 v -561.35 c 0,-47.85 -38.52,-86.37 -86.36,-86.37 H 771.42 c -109.49,4.74 -184.49,75.52 -271.42,239.89 -94.87,179.36 -104.91,219.12 -161.93,238.47 -38.11,12.92 -105.5,11.75 -105.5,11.75 H 14.21"
     sodipodi:nodetypes="cscsccssccsssc"
     style="stroke:#ffffff" /><path
     id="path4408"
     class="fil0 str0"
     d="m 985.79,376.93 h -215.9 c 0,0 -69.61,0 -107.96,9.46 C 604.91,406.66 594.71,433.77 500,623.06 411.17,800.62 338.07,867.19 230.05,867.03 H 100.57 c -47.84,0 -86.36,-38.51 -86.36,-86.36 V 219.32 c 0,-47.85 38.52,-86.37 86.36,-86.37 h 129.98 c 107.52,3.39 187.11,84.98 269.45,242.34 94.71,181 104.91,216.67 161.93,237.5 38.35,10.69 107.96,10.27 107.96,10.27 h 215.9"
     sodipodi:nodetypes="cscsccscccscsc"
     style="stroke:#ffffff" /></g>
  </g>
 </g>
</svg>
