<?xml version="1.0" encoding="UTF-8" standalone="no"?>
<!-- Creator: CorelDRAW -->

<svg
   xml:space="preserve"
   width="1000px"
   height="1000px"
   version="1.1"
   style="shape-rendering:geometricPrecision; text-rendering:geometricPrecision; image-rendering:optimizeQuality; fill-rule:evenodd; clip-rule:evenodd"
   viewBox="0 0 1000 1000"
   id="svg245"
   sodipodi:docname="kabuki-white.svg"
   inkscape:version="1.2.1 (9c6d41e410, 2022-07-14)"
   inkscape:export-filename="..\white100\kabuki-white100.png"
   inkscape:export-xdpi="4.6079998"
   inkscape:export-ydpi="4.6079998"
   xmlns:inkscape="http://www.inkscape.org/namespaces/inkscape"
   xmlns:sodipodi="http://sodipodi.sourceforge.net/DTD/sodipodi-0.dtd"
   xmlns="http://www.w3.org/2000/svg"
   xmlns:svg="http://www.w3.org/2000/svg"><sodipodi:namedview
   id="namedview247"
   pagecolor="#ffffff"
   bordercolor="#666666"
   borderopacity="1.0"
   inkscape:showpageshadow="2"
   inkscape:pageopacity="0.0"
   inkscape:pagecheckerboard="0"
   inkscape:deskcolor="#d1d1d1"
   showgrid="false"
   inkscape:zoom="0.33589188"
   inkscape:cx="483.78663"
   inkscape:cy="422.75509"
   inkscape:window-width="1538"
   inkscape:window-height="877"
   inkscape:window-x="1974"
   inkscape:window-y="-8"
   inkscape:window-maximized="1"
   inkscape:current-layer="layer1" />
 <defs
   id="defs239">
  <style
   type="text/css"
   id="style237">
   <![CDATA[
    .str0 {stroke:#373435;stroke-width:2.36;stroke-miterlimit:22.9256}
    .fil0 {fill:none}
   ]]>
  </style>
 </defs>
 <g
   id="Layer_x0020_1"
   inkscape:label="Layer 1"
   style="display:none;opacity:0.442982"
   inkscape:groupmode="layer"
   sodipodi:insensitive="true">
  <metadata
   id="CorelCorpID_0Corel-Layer" />
  
 <path
   id="Color_Fill_3"
   data-name="Color Fill 3"
   class="cls-2"
   d="m 413.68663,66.060823 c 9.93637,-5.095827 13.76251,-8.986327 31.85059,-10.745125 18.22198,0.46986 31.72849,5.541264 34.9834,9.761773 4.0348,5.231225 4.90272,13.103242 4.88348,17.896432 -0.17981,5.533123 -3.87718,11.25863 -10.57643,18.709617 -6.36329,5.27711 -8.4558,6.60008 -13.83058,10.57495 a 132.87703,132.87703 0 0 1 -27.6619,-9.76178 c -12.69925,-8.240483 -19.40145,-15.505017 -20.9634,-22.197593 -1.10325,-4.714031 -0.10281,-9.533871 1.31484,-14.238274 z M 448.05664,43.03451 c -5.42731,-0.118427 -17.53091,1.950435 -29.06849,6.310044 -9.81356,3.708471 -15.93048,8.398829 -17.38812,11.664836 -3.28895,9.539038 -1.89643,18.941952 0,25.217943 -2.24196,0.140588 -4.47725,0.275998 -6.71995,0.408446 -2.37292,0.139837 -4.73548,0.274509 -7.11063,0.405467 0.22937,-9.037375 -0.1909,-16.204238 4.88346,-24.404778 3.65817,-5.354054 39.34228,-34.82951 52.06891,-46.367814 14.02,11.60786 30.48026,27.729238 32.54316,32.538712 -5.1306,-2.083619 -14.81986,-5.459128 -29.20834,-5.772856 z m -71.67381,50.514331 c -2.4558,-17.328179 -1.84241,-37.035946 20.33889,-52.876147 -21.62709,11.473187 -29.85278,14.393655 -43.49544,39.409606 -10.09841,29.68484 -7.5013,44.11697 1.73659,69.33493 -1.75507,-27.61086 5.31188,-42.46326 21.41996,-55.868389 z m 30.91606,3.255654 c 4.44766,4.065115 4.64891,4.439505 8.95303,8.135405 -3.28894,2.41585 -14.59047,18.95971 -16.81468,27.98525 a 108.55586,108.55586 0 0 0 -1.90158,39.5295 c 4.05623,16.36998 18.5187,35.51023 23.59381,39.8602 -9.04404,4.09176 -18.48395,6.6556 -29.70778,2.27009 -7.46578,-2.62967 -21.03813,-20.36481 -22.78361,-33.1647 -1.74548,-12.79985 -1.9519,-54.3101 2.04957,-61.02785 5.80911,-12.11028 14.6926,-22.044427 36.61124,-23.590121 z m 19.52575,15.456175 c -9.42806,5.32744 -17.12396,23.40884 -17.08549,45.55465 -0.44395,15.12766 8.06513,34.14064 24.40773,50.43517 11.09141,9.48429 14.83687,10.4077 34.98416,21.1506 16.76878,-11.29933 33.5635,-44.9775 30.91607,-74.02603 -1.90899,-20.86056 -5.21495,-27.89497 -17.8994,-43.92756 -4.31448,4.05254 -8.4743,8.40845 -19.52574,13.8291 -15.33041,-4.15094 -20.58606,-5.11729 -35.79733,-13.01813 z m 62.87099,-8.38107 a 27.934197,27.934197 0 0 0 4.65632,-7.888281 c 3.97559,0.381796 8.22421,3.605624 11.89716,7.562711 a 45.727049,45.727049 0 0 1 8.44174,11.96082 c 7.35703,15.48058 7.39922,35.16099 7.32522,39.0463 a 342.64063,342.64063 0 0 1 -3.25564,40.67414 21.013726,21.013726 0 0 1 -20.33892,17.89645 86.512174,86.512174 0 0 0 5.04478,-9.72774 105.51258,105.51258 0 0 0 7.15872,-23.62491 109.43415,109.43415 0 0 0 1.62781,-14.64226 112.52775,112.52775 0 0 0 -2.67184,-29.57904 c -3.42213,-10.24493 -4.37885,-19.05146 -19.88535,-31.68041 z M 412.18014,27.657492 c -21.29859,-1.035888 -28.5365,4.704414 -45.56057,16.269368 -21.6937,17.081043 -31.13656,44.427009 -31.72925,52.875409 -0.59268,8.448411 -3.9001,50.947931 19.52576,69.959431 2.15391,13.83649 1.96818,26.15394 11.39034,39.86022 5.8387,8.49429 17.0396,20.83911 30.9153,21.96379 a 69.195829,69.195829 0 0 0 24.40775,-2.44175 c 0.0113,7.6382 -0.11468,15.26679 0,22.7777 -22.87684,3.10766 -35.64342,7.22976 -47.18765,16.26936 -17.02333,13.24456 -27.63008,38.7015 -44.74665,74.83993 -20.44991,48.22279 -52.48621,106.48705 -82.98498,135.03538 0.0126,5.13577 -0.091,3.79948 0,7.32521 -10.1835,12.31967 -41.01598,31.30822 -45.56058,34.97972 -4.54457,3.67148 -12.34925,8.30115 -15.45839,21.14985 2.1872,14.44177 14.24494,18.36925 26.03483,21.15062 20.71775,3.49315 34.23239,-2.18794 43.11956,-4.88346 1.28153,36.01558 3.56346,119.59771 -17.89866,213.94563 -1.84978,8.87904 3.58047,10.49206 8.95303,9.75953 47.19874,-8.52385 74.67641,-37.26975 92.74824,-53.68858 1.57304,56.80366 2.57786,62.85618 -1.62785,110.63282 -9.69294,23.93641 -21.67298,28.12436 -31.72997,33.3482 -47.16547,23.28527 -99.60803,33.68116 -104.95172,62.64161 6.25157,24.43956 48.46475,42.58239 81.35788,52.87468 55.11293,16.47804 98.22288,13.87357 125.29138,4.06955 32.10069,-12.7784 37.19799,-19.51168 50.21317,-36.75922 25.25348,28.97527 41.32158,22.69335 57.68269,23.41848 48.3841,-10.1665 93.14259,-41.56869 97.94023,-66.37823 0.21752,-17.63228 -4.11248,-26.10437 -13.83131,-36.61122 -17.32228,-15.57533 -33.07962,-27.08848 -43.93275,-38.23167 4.1206,-68.42039 13.30523,-173.36323 14.64376,-216.38365 14.91604,18.12805 31.21426,42.35819 52.88281,62.63719 9.25787,8.75917 13.10915,3.57306 14.64448,-1.62783 1.53535,-5.2009 29.47916,-119.68576 42.30642,-169.20269 17.94896,-66.43518 10.69774,-115.09602 7.3252,-124.46118 18.75696,-14.80951 29.24162,-39.78549 26.84799,-59.38376 43.30455,-36.73997 90.75561,-79.64128 99.25065,-93.5488 3.77877,-5.25344 2.40695,-7.94305 0,-11.38811 -18.57201,-25.78177 -60.19545,-47.19506 -117.96915,-53.68932 -40.41072,-0.95006 -87.04564,12.80062 -120.40938,45.5539 -6.53572,8.10581 -5.96006,10.46025 -2.44173,14.64302 35.63232,44.86726 75.16697,80.89248 90.30797,100.05715 -15.21203,8.3855 -32.3234,19.3304 -59.39115,17.89643 -30.03115,-28.1569 -40.73333,-73.94462 -74.03566,-100.05714 -19.33632,-8.36923 -34.42255,-7.21349 -43.93349,-8.13468 0.85389,-5.91566 1.89643,-7.12172 5.69739,-11.38885 19.15949,0.80652 26.46694,-4.19238 34.98416,-13.01593 8.42621,-3.54051 17.66558,-81.05304 -4.06956,-111.44599 C 512.53918,89.770815 502.77667,85.24028 497.60685,85.414169 498.45258,71.362341 496.92318,56.03343 491.09556,46.367114 485.06004,31.291239 470.50655,20.503207 451.23016,6.5068927 445.35224,2.4203044 443.18796,3.1772426 438.21347,7.3207937 419.33369,22.20947 414.72473,25.722603 412.18014,27.657492 Z m 21.96674,196.046958 c -0.65334,6.06734 -0.36033,17.62119 0.81391,32.53871 12.50466,9.74549 19.77879,12.24568 35.79807,13.01594 0.0192,-5.75214 -0.14354,-15.98228 0,-27.6582 -11.30819,-0.74734 -24.87905,-10.54462 -36.61198,-17.89645 z M 247.83505,498.65869 c -9.28673,7.46208 -35.29418,24.5868 -43.12032,30.91237 -4.92119,4.68368 -10.91158,9.5716 -1.62781,15.45544 15.78027,4.97375 32.75923,3.45839 49.62865,-2.44174 -1.29263,-13.41476 -3.1935,-27.99118 -4.87829,-43.92607 z M 379.637,391.28003 c -4.47579,8.56604 -13.40366,24.47581 -17.08552,34.9797 -1.91934,11.27121 1.82984,67.2025 3.25566,104.93767 8.89237,-19.41254 22.04148,-44.39003 30.10217,-74.02604 1.9149,-9.69294 0.59192,-23.12322 -1.62783,-33.35188 -2.21974,-10.22866 -7.3437,-19.36591 -14.64448,-32.53945 z m 169.22485,8.94859 c -4.88348,8.37514 -10.70296,35.50579 -14.6445,58.56982 -2.20125,17.59531 14.7,48.41963 22.77991,69.95871 5.85203,-13.75215 17.10325,-37.76183 15.45839,-67.51844 -0.71179,-29.86318 -7.16905,-49.29421 -23.5938,-61.01009 z m 121.22329,-61.824 c 13.09659,-8.33597 20.05182,-17.17947 26.84799,-17.89645 9.6049,3.45542 2.4077,35.24535 -13.83058,50.43517 -3.34962,-6.27305 -5.01147,-16.95898 -13.01741,-32.53872 z m -23.59605,-46.36856 c 1.01222,-1.12395 19.18391,-7.22533 20.33966,-8.13469 1.15576,-0.90936 7.14541,33.38372 6.5113,35.79289 -0.63413,2.40918 -27.86169,-26.53354 -26.85096,-27.6582 z m 33.35632,-11.38813 c 1.00261,5.37554 1.89643,10.63932 2.72588,16.04444 0.80652,5.25343 1.51387,10.40179 2.15612,15.68112 a 34.544641,34.544641 0 0 0 4.73105,-1.86608 c 0.8879,-0.42693 1.744,-0.8879 2.58972,-1.3881 2.38698,-4.4543 4.63263,-8.84055 6.84943,-13.38145 2.45211,-5.02255 4.74068,-9.96966 6.98115,-15.08993 a 97.515521,97.515521 0 0 0 -26.03111,0 z m 39.12771,2.7281 c -1.96891,3.75286 -3.86681,7.46061 -5.76026,11.25122 -2.81984,5.64633 -5.49466,11.20535 -8.14652,16.93232 q 0.52311,0.52905 0.98853,1.10989 a 15.186855,15.186855 0 0 1 1.45245,2.14577 c 4.99151,-3.72624 18.46988,-16.58457 28.47509,-25.21795 -4.51204,-1.70848 -10.02221,-4.25233 -17.00705,-6.22125 z M 582.21819,221.2642 c 18.4817,19.52573 46.12734,53.88021 55.3238,61.82401 23.96747,-12.59419 32.20722,-13.3341 52.88281,-16.26938 a 104.61358,104.61358 0 0 1 55.32307,14.64229 c 21.97563,-21.27639 36.34856,-32.81175 56.13698,-54.5025 -17.44138,-25.35631 -68.35306,-44.86949 -109.83297,-47.18174 A 158.54116,158.54116 0 0 0 582.21819,221.2642 Z M 406.48498,422.1924 a 96.294653,96.294653 0 0 1 -4.88347,59.38374 318.95727,318.95727 0 0 0 126.10454,8.94787 c -8.8931,-22.683 -6.59565,-44.42259 1.62783,-70.77187 -19.03962,0.62598 -37.87205,1.13134 -56.91835,1.52794 -22.06737,0.45949 -43.858,0.76065 -65.93055,0.91232 z m -18.71183,-46.36856 c 2.89974,7.99114 9.82613,23.69741 12.20351,29.2853 19.41771,-15.3393 38.99376,-37.21799 50.44181,-60.19694 13.18832,-23.73069 17.25195,-41.28753 19.78544,-63.24021 a 57.766286,57.766286 0 0 1 -31.63823,-7.74252 c -5.70699,-3.34592 -13.59306,-6.4373 -14.99522,-12.80506 -22.2072,3.83946 -29.12916,4.58381 -40.25682,12.90495 -11.27562,8.43508 -15.48948,17.89718 -19.45174,24.61862 -15.9475,30.91828 -34.58978,71.1433 -46.05706,95.0723 -14.86055,27.56942 -51.82843,79.97423 -58.57798,88.66903 14.47801,83.31499 11.96673,198.80245 -10.57641,282.27502 40.89389,-10.95081 83.70935,-36.0193 105.51258,-96.22954 4.69998,-22.64746 -2.1872,-199.97373 -6.25456,-236.4784 6.19018,-19.60789 34.22575,-73.28538 38.23833,-77.28021 4.01259,-3.99482 13.79136,-2.42027 10.5764,4.88346 -3.21494,7.30376 -2.27079,4.68593 -8.95005,16.2642 z m -7.32521,153.74722 c -5.41696,11.48133 -7.26972,18.2701 -13.83058,26.0311 2.03476,57.67827 9.43989,128.29253 -17.89868,150.49011 3.97929,64.84659 6.81985,107.88773 -6.51127,168.39098 a 85.002736,85.002736 0 0 1 -40.6786,45.55687 c -3.0381,2.14577 -7.07954,1.42803 -8.96042,-1.1025 -2.09471,-2.81169 -1.21051,-7.47317 2.45137,-9.47096 a 66.560234,66.560234 0 0 0 27.67299,-23.27787 65.19878,65.19878 0 0 0 8.93602,-19.83725 c -22.47803,23.12988 -100.16591,36.87019 -118.78304,63.44812 5.44951,20.30341 67.64643,46.31159 116.66983,52.20875 47.13289,5.02406 97.85292,0.0664 120.89551,-44.07703 C 434.54052,901.93427 431.76064,868.88206 426.44284,832.19682 407.84642,703.1992 400.74541,586.20305 380.45015,529.57106 Z m 6.51129,-13.82911 c 4.23826,-10.76584 5.63893,-15.81727 8.94934,-22.77771 a 321.84962,321.84962 0 0 0 136.6817,8.94862 c 9.93193,22.03703 21.62786,53.03596 22.77991,69.14477 9.40586,76.15922 -16.74291,205.97818 -14.05848,311.0542 3.47762,11.63894 12.75327,10.0333 12.43065,3.75879 0.80505,-14.64302 -0.87014,-21.64266 0,-34.97601 23.52576,17.14393 39.85357,28.25014 46.29234,50.13697 -1.93561,35.1092 -90.47294,82.07931 -124.39606,53.17065 C 442.88756,922.43745 438.99335,812.06361 424.3829,719.10747 412.67959,603.22342 399.93078,533.7405 386.95923,515.74195 Z m 97.12854,-267.62902 c -0.41213,87.3468 -27.47101,120.45229 -70.28053,161.88041 42.36557,0.17537 97.77226,-0.3152 118.71495,-3.32964 17.91494,-29.09809 12.14579,-79.1374 4.23013,-97.03014 -1.42731,-9.97633 6.47651,-11.36369 9.64412,-4.09175 9.91491,14.33891 14.19091,57.57094 7.34666,81.67754 14.92566,12.02664 28.52613,24.46618 30.91607,69.14551 2.90419,33.52798 -12.08956,74.84363 -21.12471,86.55878 3.80466,19.03519 5.6737,35.69003 4.85313,47.66416 15.60047,27.75664 35.33783,53.08335 56.95015,75.65314 14.79839,-62.66384 35.27716,-118.27622 42.3064,-165.94851 18.01779,-58.28498 10.41215,-121.09307 -8.13912,-158.62774 -20.03479,10.29007 -37.84469,21.43104 -61.83214,14.64303 -30.92865,-24.53796 -37.8839,-63.08261 -75.66347,-101.68423 -13.62488,-2.21459 -23.40072,-6.09917 -37.92164,-6.51352 z"
   style="fill:#ff2a2a;fill-rule:evenodd;stroke-width:0.739919" /></g><g
   inkscape:groupmode="layer"
   id="layer1"
   inkscape:label="Layer 2"
   style="display:inline"><g
     id="g1291"
     style="opacity:1;stroke:#ffffff"
     transform="translate(-1.501026,0.25216908)"><path
       style="fill:none;stroke:#ffffff;stroke-width:15;stroke-linecap:round;stroke-linejoin:round;stroke-dasharray:none;stroke-opacity:1"
       d="m 391.36444,357.67606 c -9.13065,15.14191 -36.42257,65.34416 -35.64561,73.77126 2.08738,58.09531 10.55783,198.55303 2.65103,242.34539 -5.90238,32.69075 -52.25846,83.91009 -115.39252,99.84715 11.06118,-77.31798 29.24099,-134.4665 11.00604,-294.79017 48.46437,-60.90944 74.63787,-122.42041 105.00642,-186.62 21.23364,-28.07583 34.13357,-32.12935 65.37935,-36.93256 10.71836,12.05676 20.46789,19.94178 49.31937,18.13785 m -89.50951,106.92343 14.98752,36.89234 c 43.6173,-40.53576 71.64206,-81.55025 78.38281,-138.02454 -0.23494,-18.01352 0.89033,-28.94962 0.71816,-46.96381"
       id="path1154"
       sodipodi:nodetypes="ccsccccccccc" /><path
       style="fill:none;stroke:#ffffff;stroke-width:15;stroke-linecap:round;stroke-linejoin:round;stroke-dasharray:none;stroke-opacity:1"
       d="m 480.12323,242.97734 c 19.31568,1.99022 34.0592,-0.39524 46.13918,8.35499 31.11506,22.53844 44.55872,74.57033 72.9468,97.12968 8.84698,6.52776 26.23919,3.90049 63.63298,-14.152 53.79396,94.5434 -4.43493,224.91487 -33.66158,344.7262 -23.56265,-26.26077 -49.34384,-50.74672 -64.8029,-83.49037"
       id="path1156"
       sodipodi:nodetypes="cscccc" /><path
       style="fill:none;stroke:#ffffff;stroke-width:15;stroke-linecap:round;stroke-linejoin:round;stroke-dasharray:none;stroke-opacity:1"
       d="m 542.32543,305.87664 c 23.60937,60.62736 -8.90795,104.58182 -13.59333,152.89139 -4.43163,26.09095 28.37607,71.5288 32.45697,113.23696 9.2673,94.71479 -17.22576,197.689 -13.05899,311.80247"
       id="path1160"
       sodipodi:nodetypes="ccsc" /><path
       style="fill:none;stroke:#ffffff;stroke-width:15;stroke-linecap:round;stroke-linejoin:round;stroke-dasharray:none;stroke-opacity:1"
       d="m 549.87853,836.43568 c 6.80507,6.34965 18.20344,19.28342 29.04592,26.62231 45.35328,30.69802 30.10062,56.00427 -3.45803,81.1208 -22.13029,16.66011 -71.15245,32.66418 -96.3871,18.63942 -65.71169,-36.52085 -51.40406,-367.33215 -98.09085,-445.76243 12.60344,-33.249 28.97299,-57.94223 18.17806,-99.80503"
       id="path1162"
       sodipodi:nodetypes="cscscc" /><path
       style="fill:none;stroke:#ffffff;stroke-width:15;stroke-linecap:round;stroke-linejoin:round;stroke-dasharray:none;stroke-opacity:1"
       d="m 458.45202,939.79712 c -68.61915,101.04148 -254.66657,23.85497 -252.62072,-8.21408 1.1841,-18.56101 31.8631,-32.33025 73.3926,-45.18401 33.99235,-10.52095 47.26665,-22.99795 60.17063,-38.75037"
       id="path1164"
       sodipodi:nodetypes="cssc" /><path
       style="fill:none;stroke:#ffffff;stroke-width:15;stroke-linecap:round;stroke-linejoin:round;stroke-dasharray:none;stroke-opacity:1"
       d="m 344.55387,707.03866 c 2.70917,74.26647 10.56164,189.58664 -47.26648,209.14343"
       id="path1166"
       sodipodi:nodetypes="cc" /><path
       style="fill:none;stroke:#ffffff;stroke-width:15;stroke-linecap:butt;stroke-linejoin:round;stroke-dasharray:none;stroke-opacity:1"
       d="m 381.16799,515.74195 c -8.21289,15.2201 -10.84541,24.37142 -19.53941,35.68057"
       id="path1168"
       sodipodi:nodetypes="cc" /><path
       style="fill:none;stroke:#ffffff;stroke-width:15;stroke-linecap:round;stroke-linejoin:round;stroke-dasharray:none;stroke-opacity:1"
       d="m 550.78439,391.39125 c 51.22152,47.64283 15.91385,133.29893 4.5311,150.30412"
       id="path1170"
       sodipodi:nodetypes="cc" /><path
       style="fill:none;stroke:#ffffff;stroke-width:15;stroke-linecap:round;stroke-linejoin:round;stroke-dasharray:none;stroke-opacity:1"
       d="m 259.07752,549.52425 c -13.23115,2.81978 -28.31644,6.63296 -44.04539,4.02627 -32.672,-5.41458 -26.19036,-19.41754 -4.07271,-36.61324 11.14587,-8.66552 30.7668,-19.42877 42.98374,-30.31232"
       id="path1172"
       sodipodi:nodetypes="cssc" /><path
       style="fill:none;stroke:#ffffff;stroke-width:15;stroke-linecap:butt;stroke-linejoin:round;stroke-dasharray:none;stroke-opacity:1"
       d="m 680.88619,378.46821 c 46.49644,-40.22031 28.89302,-92.13609 -16.07338,-44.1582"
       id="path1174"
       sodipodi:nodetypes="cc" /><path
       style="fill:none;stroke:#ffffff;stroke-width:15;stroke-linecap:butt;stroke-linejoin:round;stroke-dasharray:none;stroke-opacity:1"
       d="m 400.48028,415.36055 c 67.06845,1.26013 139.90133,-3.27098 139.90133,-3.27098"
       id="path1176"
       sodipodi:nodetypes="cc" /><path
       style="fill:none;stroke:#ffffff;stroke-width:15;stroke-linecap:butt;stroke-linejoin:round;stroke-dasharray:none;stroke-opacity:1"
       d="m 390.66735,485.2978 c 51.12116,11.23348 96.13889,19.15081 143.8828,8.43216"
       id="path1178"
       sodipodi:nodetypes="cc" /><path
       style="fill:none;stroke:#ffffff;stroke-width:15;stroke-linecap:round;stroke-linejoin:round;stroke-dasharray:none;stroke-opacity:1"
       d="m 427.99249,254.71494 0.75838,-39.22875 c -11.47465,2.13917 -21.2941,12.20399 -38.19065,4.63714 -34.41416,-15.41183 -38.28502,-87.49824 -17.69999,-112.90526 13.44389,-16.593078 27.176,-17.288263 38.00369,-14.382053"
       id="path1180"
       sodipodi:nodetypes="ccssc" /><path
       style="fill:none;stroke:#ffffff;stroke-width:15;stroke-linecap:round;stroke-linejoin:round;stroke-dasharray:none;stroke-opacity:1"
       d="m 480.6353,105.80107 c 28.46682,16.36333 34.24776,58.76453 17.24552,95.08206 -5.98885,12.79245 -16.3914,25.62354 -27.4301,35.19859 -16.4912,-7.28421 -33.10233,-15.82486 -44.65296,-26.87555 -28.50062,-27.26704 -32.86531,-76.2335 -0.96133,-103.6233"
       id="path1184"
       sodipodi:nodetypes="cscsc" /><path
       style="fill:none;stroke:#ffffff;stroke-width:15;stroke-linecap:round;stroke-linejoin:round;stroke-dasharray:none;stroke-opacity:1"
       d="m 492.06383,217.7077 c 13.36319,3.33813 25.06491,-2.29904 29.34493,-9.7171 8.37058,-14.50772 9.35776,-62.28005 5.44846,-79.35768 C 516.7743,95.549603 499.00393,89.712817 494.28533,88.860285"
       id="path1186"
       sodipodi:nodetypes="cscc" /><path
       style="fill:none;stroke:#ffffff;stroke-width:15;stroke-linecap:round;stroke-linejoin:round;stroke-dasharray:none;stroke-opacity:1"
       d="m 462.2598,120.05454 c -32.41195,-10.1149 -50.20223,-20.930703 -55.724,-35.637269 -2.86355,-7.62672 -3.86168,-18.11174 4.44302,-24.436579 20.25314,-15.424734 51.41575,-13.881962 70.38347,-3.33226 8.51674,4.736945 11.85657,11.457353 10.99263,27.301556 -0.49906,9.15243 -8.13784,19.654092 -30.09512,36.104552 z"
       id="path1188"
       sodipodi:nodetypes="cssssc" /><path
       style="fill:none;stroke:#ffffff;stroke-width:15;stroke-linecap:round;stroke-linejoin:round;stroke-dasharray:none;stroke-opacity:1"
       d="M 358.95972,165.27297 C 336.70335,130.17206 328.74505,91.747579 366.35717,53.09402 387.33976,33.601244 399.98037,32.512444 413.70034,36.071983"
       id="path1190"
       sodipodi:nodetypes="ccc" /><path
       style="fill:none;stroke:#ffffff;stroke-width:15;stroke-linecap:round;stroke-linejoin:round;stroke-dasharray:none;stroke-opacity:1"
       d="m 382.00607,93.39646 c -3.55764,-44.370241 6.45728,-31.315475 62.62796,-83.981866 33.02357,26.159587 46.05694,39.60797 46.90123,60.96888"
       id="path1192"
       sodipodi:nodetypes="ccc" /><path
       style="fill:none;stroke:#ffffff;stroke-width:15;stroke-linecap:round;stroke-linejoin:round;stroke-dasharray:none;stroke-opacity:1"
       d="M 669.6695,325.1597 573.79231,222.03581 c 67.64619,-68.82865 176.19823,-63.53117 236.76669,3.62335 l -101.66842,97.74631"
       id="path1194"
       sodipodi:nodetypes="cccc" /><path
       style="fill:none;stroke:#ffffff;stroke-width:15;stroke-linecap:butt;stroke-linejoin:round;stroke-dasharray:none;stroke-opacity:1"
       d="m 636.46179,289.90668 c 36.2209,-20.53949 73.1399,-22.92821 111.07536,1.11075"
       id="path1196"
       sodipodi:nodetypes="cc" /><path
       style="fill:none;stroke:#ffffff;stroke-width:15;stroke-linecap:butt;stroke-linejoin:round;stroke-dasharray:none;stroke-opacity:1"
       d="M 681.30173,321.21267 673.11666,279.9099"
       id="path1198"
       sodipodi:nodetypes="cc" /><path
       style="fill:none;stroke:#ffffff;stroke-width:15;stroke-linecap:butt;stroke-linejoin:round;stroke-dasharray:none;stroke-opacity:1"
       d="m 714.62434,276.98743 -19.29261,42.9096"
       id="path1200"
       sodipodi:nodetypes="cc" /></g></g>
</svg>
